<?xml version="1.0" encoding="UTF-8"?>
<svg xmlns="http://www.w3.org/2000/svg" xmlns:xlink="http://www.w3.org/1999/xlink" version="1.1" id="Layer_1" x="0px"
     y="0px" viewBox="120 60 500 500" style="enable-background:new 0 0 740.6 740.6;" xml:space="preserve"> <style
  type="text/css"> .st0{fill:#F8C521;} .st1{fill:#E23A8D;} .st2{fill:#0F9BD7;} .st3{fill:#EB7823;} .st4{fill:#9D216D;} .st5{fill:#27428D;} .st6{fill:#1B1A3A;} </style>
  <g> <g> <polygon class="st0"
                   points="263.9,282.9 157.4,344.3 157.4,467.2 263.9,528.6 370.4,467.2 263.9,405.7 "></polygon>
    <polygon class="st1" points="476.9,282.9 476.9,405.7 370.4,467.2 476.9,528.6 583.3,467.2 583.3,344.3 "></polygon>
    <polygon class="st2" points="370.4,98.6 263.9,160 263.9,282.9 370.4,221.5 476.9,282.9 476.9,160 "></polygon>
    <polygon class="st3" points="263.9,282.9 263.9,405.7 370.4,467.2 370.4,344.3 "></polygon>
    <polygon class="st4" points="476.9,282.9 370.4,344.3 370.4,467.2 476.9,405.7 "></polygon>
    <polygon class="st5" points="476.9,282.9 370.4,221.5 263.9,282.9 370.4,344.3 "></polygon> </g>
     </g> </svg>
