<?xml version="1.0" encoding="UTF-8" standalone="no"?>
<!DOCTYPE svg PUBLIC "-//W3C//DTD SVG 1.1//EN" "http://www.w3.org/Graphics/SVG/1.1/DTD/svg11.dtd">
<svg width="100%" height="100%" viewBox="0 0 460 460" version="1.1" xmlns="http://www.w3.org/2000/svg" xmlns:xlink="http://www.w3.org/1999/xlink" xml:space="preserve" xmlns:serif="http://www.serif.com/" style="fill-rule:evenodd;clip-rule:evenodd;stroke-linejoin:round;stroke-miterlimit:2;">
    <g id="Background">
        <path d="M2.5,0L459.999,0C462.089,11.288 459.999,11.355 459.999,143.5L459.999,459.999C453.055,462.313 452.836,459.999 368.5,459.999L0,459.999C-1.328,456.015 -0,455.88 0,407.5L0,0C0.405,-0.728 2.095,0.728 2.5,0Z" style="fill:rgb(254,254,254);"/>
      <path d="M162.966,115.5C163.027,100.488 163.035,100.675 163.035,85.5L163.035,46.5C163.04,35.575 158.603,31.402 169.405,29.115C194.572,23.787 205.364,20.223 230.502,19.969C256.179,19.71 299.052,28.141 299.031,33.506C298.514,170.411 300.208,200.311 297.448,201.017C295.959,201.397 176.044,200.999 165.488,200.964C162.475,200.954 162.966,199.028 162.966,115.5Z" style="fill:rgb(76,120,140);"/>
      <path d="M299.034,344.5C299.034,430.266 299.317,431.16 297.566,431.692C240.094,449.144 208.724,444.481 165.431,431.77C162.01,430.766 163.629,428.921 162.967,275.505C162.952,272.084 165.484,273.674 295.5,273.035C300.026,273.013 298.754,275.734 299.034,344.5Z" style="fill:rgb(135,211,225);"/>
      <path d="M442.04,250.467C440.448,262.389 435.983,317.423 390.412,370.423C387.089,374.288 365.82,395.906 363.457,395.802C361.355,395.709 363.015,147.546 362.463,69.499C362.403,60.91 393.189,94.373 397.583,101.442C397.636,101.527 411.851,116.418 429.244,156.616C443.721,190.077 442.251,242.893 442.04,250.467Z" style="fill:rgb(135,211,225);"/>
      <path d="M100.034,179.5C100.053,251.157 100.071,322.814 100.09,394.471C100.109,401.083 67.371,366.039 63.076,358.712C61.557,356.12 29.419,319.379 21.344,254.517C7.103,140.128 100.072,60.481 100.128,67.565C100.198,76.52 99.589,76.374 100.034,179.5Z" style="fill:rgb(76,120,140);"/>
    </g>
</svg>
