<?xml version="1.0" standalone="no"?>
<!DOCTYPE svg PUBLIC "-//W3C//DTD SVG 20010904//EN"
  "http://www.w3.org/TR/2001/REC-SVG-20010904/DTD/svg10.dtd">
<svg version="1.0" xmlns="http://www.w3.org/2000/svg"
     width="400.000000pt" height="400.000000pt" viewBox="0 0 400.000000 400.000000"
     preserveAspectRatio="xMidYMid meet">

  <g transform="translate(-80.00000,480.000000) scale(0.140000,-0.140000)"
     fill="#000000" stroke="none">
    <path d="M1383 2908 l-483 -280 0 -628 0 -628 485 -280 485 -280 0 258 0 257
-257 149 -258 149 0 375 0 375 258 149 257 149 0 258 c0 143 -1 259 -2 258 -2
-1 -220 -127 -485 -281z"/>
    <path d="M2122 2934 l3 -258 260 -151 260 -150 3 -92 3 -93 -541 0 -540 0 0
-175 0 -175 540 0 541 0 -3 -107 -3 -108 -260 -150 -260 -151 -3 -258 c-1
-142 1 -256 6 -254 4 1 225 128 490 282 l482 278 0 628 0 628 -482 278 c-265
154 -486 281 -490 282 -5 2 -7 -112 -6 -254z"/>
  </g>
</svg>
