<svg style="background-color:#ffffff;" version="1.0" width="700" height="700" xmlns="http://www.w3.org/2000/svg" viewBox="0 0 700 700">
  <path style="fill: #da0914;" d="M43 350v307h614V43H43v307zm580.5 0v273.5h-547L76.2 351c-.1-149.9 0-273.1.3-273.8.3-1 55.6-1.2 273.7-1l273.3.3V350z"/>
  <path style="fill: #da0914;" d="M145 239.5V334h189V145H145v94.5zM366 239c0 51.7.3 94 .8 94 .4 0 43-42.3 94.7-94l94-94H366v94zM145 460.5V555h189V366H145v94.5zM366 460.5V555h189.5L461 460.5 366.3 366c-.2 0-.3 42.5-.3 94.5z"/>
</svg>
