<?xml version="1.0" encoding="UTF-8"?><svg version="1.1" viewBox="0 0 75.2 75.2" xmlns="http://www.w3.org/2000/svg"><path d="m37.6 37.6m37.6 0a37.6 37.6 0 1 0-75.2 0 37.6 37.6 0 1 0 75.2 0" fill="#fff"/><path d="m37.6 19.5a17.8 17.8 0 0 0-12.4 5c0.7-0.2 1.4-0.3 2.1-0.3 3.9 0 7 3.1 7 7s-3.1 7-7 7c-3.6 0-6.5-2.6-6.9-6.1-0.6 1.7-0.9 3.6-0.9 5.5a18.1 18.1 0 0 0 36.2 0c0.1-10-8.1-18.1-18.1-18.1z" fill="#38b4ea" fill-rule="evenodd"/><path d="m37.6 75.2c-5.2 0-10.1-1-14.6-3s-8.5-4.7-11.9-8.1-6.1-7.4-8.1-11.9-3-9.5-3-14.6c0-5.2 1-10.1 3-14.6s4.7-8.5 8.1-11.9 7.4-6.1 11.9-8.1 9.5-3 14.6-3c5.2 0 10.1 1 14.6 3s8.5 4.7 11.9 8.1 6.1 7.4 8.1 11.9 3 9.5 3 14.6c0 5.2-1 10.1-3 14.6s-4.7 8.5-8.1 11.9-7.4 6.1-11.9 8.1-9.4 3-14.6 3zm0-64.6c-3.7 0-7.3 0.7-10.5 2.1-3.3 1.4-6.2 3.4-8.6 5.8s-4.4 5.3-5.8 8.6-2.1 6.8-2.1 10.5 0.7 7.3 2.1 10.5c1.4 3.3 3.4 6.2 5.8 8.6s5.3 4.4 8.6 5.8 6.8 2.1 10.5 2.1 7.2-0.7 10.5-2.1 6.2-3.3 8.6-5.8c2.4-2.4 4.4-5.3 5.8-8.6s2.1-6.8 2.1-10.5-0.7-7.2-2.1-10.5-3.4-6.2-5.8-8.6-5.3-4.3-8.6-5.8c-3.3-1.4-6.8-2.1-10.5-2.1z"/><path d="m37.6 26.45c-1.6 0-3.1 0.3-4.4 0.9 0.7 1.1 1.1 2.4 1.1 3.7 0 3.9-3.1 7-7 7h-0.8c0.3 5.9 5.1 10.7 11.1 10.7 6.2 0 11.1-5 11.1-11.1s-4.9-11.2-11.1-11.2z" fill-rule="evenodd"/></svg>
