<?xml version="1.0" encoding="utf-8"?>
<svg viewBox="0 5.9 677.2 677.2" xmlns="http://www.w3.org/2000/svg">
  <g transform="matrix(1.2997729778289795, 0, 0, -1.2997729778289795, -1.1368683772161603e-13, 458.7500915527344)" id="g10">
    <g transform="scale(0.1)" id="g12">
      <path id="path14" style="fill: #db1f26; fill-rule: nonzero; stroke: none; fill-opacity: 1" d="M 4717.1 992.4 l -4.8 -56.7 c -33.1 -406.4 -165.4 -531.6 -328.4 -531.6 c -146.5 0 -250.5 99.2 -229.2 363.8 l 4.7 59.1 c 33.1 404 165.4 531.6 328.4 531.6 c 144.2 0 250.5 -101.6 229.2 -366.3 z m -3662.4 0 l -4.8 -56.7 C 1017 529.3 884.6 404 721.6 404 c -146.5 0 -250.4 99.2 -229.2 363.8 l 4.7 59.1 c 33.1 404 165.4 531.6 328.5 531.6 c 144.1 0 250.4 -101.6 229.2 -366.3 z m 3480.4 765.6 c -259.6 0 -470.7 -80 -619.9 -245.7 c 21.3 57.5 32.5 127.6 33.9 210.2 H 3039.5 c -198.5 0 -311.9 -87.4 -389.9 -311.9 l 40.2 311.9 h -919.1 c -168.3 0 -283.8 -80.5 -325.5 -238 c -113.9 182.5 -316.3 273.5 -572.3 273.5 c -486.7 0 -803.3 -281.2 -860 -881.3 L 5.7 801 C -44 264.6 237.2 0 674.3 0 C 1161.1 0 1477.7 283.5 1534.4 883.7 l 7.1 75.6 c 12.8 137.6 3.5 257.2 -24.7 359.2 h 412.2 L 1810.9 307.1 C 1787.2 106.3 1895.9 14.2 2077.8 14.2 c 111.1 0 148.9 7.1 191.4 14.2 L 2415.7 1318.4 h 479.7 L 2777.2 307.1 c -23.6 -200.8 85.1 -293 267 -293 c 111 0 148.9 7.1 191.4 14.2 L 3382.1 1318.4 h 236.3 c 81.8 0 147.8 19 198.7 56.6 c -74.4 -131.1 -123 -296.6 -142 -498.4 l -7.1 -75.6 C 3618.4 264.6 3899.6 0 4336.7 0 c 486.8 0 803.3 283.5 860.1 883.7 l 7.1 75.6 c 49.6 534 -231.5 798.6 -668.7 798.6"/>
    </g>
  </g>
</svg>
